<svg xmlns:xlink="http://www.w3.org/1999/xlink" width="268" xmlns="http://www.w3.org/2000/svg" height="163" id="screenshot-f19921dd-82e4-809d-8002-76d6a612a928" viewBox="-0.5 -0.5 268 163" style="-webkit-print-color-adjust: exact;" fill="none" version="1.1"><g id="shape-f19921dd-82e4-809d-8002-76d6a612a928" version="1.0" width="2580.000000pt" height="1440.000000pt" preserveAspectRatio="xMidYMid meet" rx="0" ry="0" style="fill: rgb(0, 0, 0);"><g id="shape-f19921dd-82e4-809d-8002-76d6a613371e" rx="0" ry="0" style="fill: rgb(0, 0, 0);"><g id="shape-f19921dd-82e4-809d-8002-76d6a613371f"><g class="fills" id="fills-f19921dd-82e4-809d-8002-76d6a613371f"><path stroke="none" rx="0" ry="0" d="M75.039,45.023C75.029,46.001,74.677,47.936,74.346,48.881C73.984,49.939,73.725,50.468,73.208,51.210C72.473,52.245,71.759,52.774,70.724,53.021L70.155,53.168L70.755,53.303C73.021,53.809,74.729,56.903,75.008,60.975L75.091,62.044L75.226,60.649C75.464,58.162,76.178,56.104,77.275,54.788C77.999,53.921,78.517,53.561,79.376,53.314C79.748,53.201,79.955,53.111,79.831,53.111C79.231,53.078,78.310,52.605,77.720,52.009C76.323,50.603,75.536,48.600,75.195,45.563C75.060,44.348,75.050,44.314,75.039,45.023ZZ" style="fill: rgb(125, 81, 37); fill-opacity: 1;"/></g><g id="strokes-f19921dd-82e4-809d-8002-76d6a613371f" class="strokes"><g class="stroke-shape"><path stroke="none" rx="0" ry="0" d="M75.039,45.023C75.029,46.001,74.677,47.936,74.346,48.881C73.984,49.939,73.725,50.468,73.208,51.210C72.473,52.245,71.759,52.774,70.724,53.021L70.155,53.168L70.755,53.303C73.021,53.809,74.729,56.903,75.008,60.975L75.091,62.044L75.226,60.649C75.464,58.162,76.178,56.104,77.275,54.788C77.999,53.921,78.517,53.561,79.376,53.314C79.748,53.201,79.955,53.111,79.831,53.111C79.231,53.078,78.310,52.605,77.720,52.009C76.323,50.603,75.536,48.600,75.195,45.563C75.060,44.348,75.050,44.314,75.039,45.023ZZ" style="fill: none; stroke-width: 1; stroke: rgb(125, 81, 37); stroke-opacity: 1;"/></g></g></g><g id="shape-f19921dd-82e4-809d-8002-76d6a61372b8"><g class="fills" id="fills-f19921dd-82e4-809d-8002-76d6a61372b8"><path stroke="none" rx="0" ry="0" d="M94.951,47.531C93.098,48.521,90.128,49.534,86.361,50.445C84.840,50.816,84.384,50.974,84.364,51.109C84.333,51.266,84.426,51.300,84.892,51.300C85.554,51.300,86.030,51.593,86.351,52.200C86.568,52.594,86.568,52.639,86.568,70.031C86.568,86.434,86.558,87.491,86.382,87.829C86.175,88.245,85.730,88.425,84.892,88.425C84.415,88.425,84.343,88.459,84.343,88.650C84.343,88.875,84.415,88.875,91.432,88.875C98.448,88.875,98.521,88.875,98.521,88.650C98.521,88.459,98.448,88.425,97.983,88.414C97.103,88.391,96.844,88.290,96.586,87.874L96.348,87.491L96.348,67.376C96.348,56.318,96.317,47.194,96.286,47.093C96.255,46.991,96.192,46.913,96.151,46.924C96.120,46.924,95.582,47.205,94.951,47.531ZZ" style="fill: rgb(125, 81, 37); fill-opacity: 1;"/></g><g id="strokes-f19921dd-82e4-809d-8002-76d6a61372b8" class="strokes"><g class="stroke-shape"><path stroke="none" rx="0" ry="0" d="M94.951,47.531C93.098,48.521,90.128,49.534,86.361,50.445C84.840,50.816,84.384,50.974,84.364,51.109C84.333,51.266,84.426,51.300,84.892,51.300C85.554,51.300,86.030,51.593,86.351,52.200C86.568,52.594,86.568,52.639,86.568,70.031C86.568,86.434,86.558,87.491,86.382,87.829C86.175,88.245,85.730,88.425,84.892,88.425C84.415,88.425,84.343,88.459,84.343,88.650C84.343,88.875,84.415,88.875,91.432,88.875C98.448,88.875,98.521,88.875,98.521,88.650C98.521,88.459,98.448,88.425,97.983,88.414C97.103,88.391,96.844,88.290,96.586,87.874L96.348,87.491L96.348,67.376C96.348,56.318,96.317,47.194,96.286,47.093C96.255,46.991,96.192,46.913,96.151,46.924C96.120,46.924,95.582,47.205,94.951,47.531ZZ" style="fill: none; stroke-width: 1; stroke: rgb(125, 81, 37); stroke-opacity: 1;"/></g></g></g><g id="shape-f19921dd-82e4-809d-8002-76d6a61372b9"><g class="fills" id="fills-f19921dd-82e4-809d-8002-76d6a61372b9"><path stroke="none" rx="0" ry="0" d="M40.567,51.188C40.567,51.390,40.640,51.413,41.271,51.413C42.109,51.413,42.420,51.570,42.658,52.088C42.834,52.459,42.844,53.539,42.844,69.806C42.844,81.495,42.803,87.266,42.730,87.559C42.585,88.133,42.254,88.335,41.333,88.403C40.671,88.447,40.567,88.481,40.567,88.661C40.567,88.864,40.940,88.875,53.307,88.875L66.057,88.875L65.984,88.515C65.622,86.535,65.436,80.933,65.653,78.379L65.736,77.400L64.908,77.400L64.080,77.400L63.697,78.435C62.973,80.438,61.162,83.936,59.972,85.669C59.226,86.738,58.171,87.818,57.571,88.121C57.136,88.335,56.846,88.369,55.356,88.403C53.348,88.459,52.976,88.357,52.727,87.705C52.489,87.098,52.500,52.571,52.727,52.088C52.986,51.548,53.265,51.413,54.093,51.413C54.776,51.413,54.849,51.390,54.849,51.188C54.849,50.963,54.776,50.963,47.708,50.963C40.640,50.963,40.567,50.963,40.567,51.188ZZ" style="fill: rgb(125, 81, 37); fill-opacity: 1;"/></g><g id="strokes-f19921dd-82e4-809d-8002-76d6a61372b9" class="strokes"><g class="stroke-shape"><path stroke="none" rx="0" ry="0" d="M40.567,51.188C40.567,51.390,40.640,51.413,41.271,51.413C42.109,51.413,42.420,51.570,42.658,52.088C42.834,52.459,42.844,53.539,42.844,69.806C42.844,81.495,42.803,87.266,42.730,87.559C42.585,88.133,42.254,88.335,41.333,88.403C40.671,88.447,40.567,88.481,40.567,88.661C40.567,88.864,40.940,88.875,53.307,88.875L66.057,88.875L65.984,88.515C65.622,86.535,65.436,80.933,65.653,78.379L65.736,77.400L64.908,77.400L64.080,77.400L63.697,78.435C62.973,80.438,61.162,83.936,59.972,85.669C59.226,86.738,58.171,87.818,57.571,88.121C57.136,88.335,56.846,88.369,55.356,88.403C53.348,88.459,52.976,88.357,52.727,87.705C52.489,87.098,52.500,52.571,52.727,52.088C52.986,51.548,53.265,51.413,54.093,51.413C54.776,51.413,54.849,51.390,54.849,51.188C54.849,50.963,54.776,50.963,47.708,50.963C40.640,50.963,40.567,50.963,40.567,51.188ZZ" style="fill: none; stroke-width: 1; stroke: rgb(125, 81, 37); stroke-opacity: 1;"/></g></g></g><g id="shape-f19921dd-82e4-809d-8002-76d6a61372ba"><g class="fills" id="fills-f19921dd-82e4-809d-8002-76d6a61372ba"><path stroke="none" rx="0" ry="0" d="M99.680,61.954C99.711,62.123,99.866,62.168,100.529,62.224C101.481,62.314,101.770,62.494,102.102,63.236C102.226,63.506,103.385,68.029,104.678,73.294C107.680,85.523,107.680,85.523,108.114,86.434C108.787,87.818,109.801,88.538,111.395,88.763C111.798,88.819,113.258,88.875,114.634,88.875L117.128,88.875L116.818,90.135C116.031,93.341,115.379,94.241,114.137,93.836C113.868,93.746,113.392,93.352,112.647,92.599C110.940,90.866,109.760,90.315,108.259,90.551C105.444,90.968,103.809,94.005,104.834,96.908C105.320,98.291,106.614,99.495,107.907,99.776C109.180,100.046,111.002,99.866,112.130,99.337C112.833,99.011,113.827,98.212,114.262,97.628C115.410,96.098,116.580,93.713,117.087,91.913C117.232,91.384,118.867,84.735,120.719,77.119C124.383,62.066,124.207,62.674,125.024,62.359C125.221,62.280,125.635,62.224,125.956,62.224C126.504,62.212,126.670,62.111,126.670,61.807C126.670,61.785,125.490,61.774,124.062,61.785C121.754,61.819,121.444,61.841,121.413,61.999C121.392,62.145,121.516,62.190,122.116,62.235C123.017,62.314,123.286,62.528,123.286,63.191C123.286,63.608,117.811,86.254,117.677,86.434C117.594,86.524,111.974,63.540,111.974,63.135C111.974,63.011,112.078,62.764,112.212,62.595C112.419,62.336,112.554,62.291,113.206,62.235C113.796,62.190,113.941,62.145,113.899,62.021C113.858,61.931,113.837,61.830,113.837,61.807C113.837,61.785,110.639,61.763,106.738,61.763C100.042,61.763,99.649,61.774,99.680,61.954ZZ" style="fill: rgb(125, 81, 37); fill-opacity: 1;"/></g><g id="strokes-f19921dd-82e4-809d-8002-76d6a61372ba" class="strokes"><g class="stroke-shape"><path stroke="none" rx="0" ry="0" d="M99.680,61.954C99.711,62.123,99.866,62.168,100.529,62.224C101.481,62.314,101.770,62.494,102.102,63.236C102.226,63.506,103.385,68.029,104.678,73.294C107.680,85.523,107.680,85.523,108.114,86.434C108.787,87.818,109.801,88.538,111.395,88.763C111.798,88.819,113.258,88.875,114.634,88.875L117.128,88.875L116.818,90.135C116.031,93.341,115.379,94.241,114.137,93.836C113.868,93.746,113.392,93.352,112.647,92.599C110.940,90.866,109.760,90.315,108.259,90.551C105.444,90.968,103.809,94.005,104.834,96.908C105.320,98.291,106.614,99.495,107.907,99.776C109.180,100.046,111.002,99.866,112.130,99.337C112.833,99.011,113.827,98.212,114.262,97.628C115.410,96.098,116.580,93.713,117.087,91.913C117.232,91.384,118.867,84.735,120.719,77.119C124.383,62.066,124.207,62.674,125.024,62.359C125.221,62.280,125.635,62.224,125.956,62.224C126.504,62.212,126.670,62.111,126.670,61.807C126.670,61.785,125.490,61.774,124.062,61.785C121.754,61.819,121.444,61.841,121.413,61.999C121.392,62.145,121.516,62.190,122.116,62.235C123.017,62.314,123.286,62.528,123.286,63.191C123.286,63.608,117.811,86.254,117.677,86.434C117.594,86.524,111.974,63.540,111.974,63.135C111.974,63.011,112.078,62.764,112.212,62.595C112.419,62.336,112.554,62.291,113.206,62.235C113.796,62.190,113.941,62.145,113.899,62.021C113.858,61.931,113.837,61.830,113.837,61.807C113.837,61.785,110.639,61.763,106.738,61.763C100.042,61.763,99.649,61.774,99.680,61.954ZZ" style="fill: none; stroke-width: 1; stroke: rgb(125, 81, 37); stroke-opacity: 1;"/></g></g></g><g id="shape-f19921dd-82e4-809d-8002-76d6a61372bb"><g class="fills" id="fills-f19921dd-82e4-809d-8002-76d6a61372bb"><path stroke="none" rx="0" ry="0" d="M78.703,62.516C76.695,63.630,74.005,64.721,71.997,65.250C70.962,65.531,69.254,65.813,68.592,65.813C68.168,65.813,68.095,65.846,68.095,66.038C68.095,66.217,68.168,66.263,68.489,66.263C69.006,66.263,69.751,66.679,70.031,67.140C70.165,67.365,70.279,67.770,70.320,68.209C70.351,68.591,70.372,73.080,70.351,78.188C70.320,86.783,70.310,87.491,70.134,87.829C69.927,88.245,69.482,88.425,68.644,88.425C68.168,88.425,68.095,88.459,68.095,88.650C68.095,88.875,68.168,88.875,75.184,88.875C82.035,88.875,82.273,88.864,82.273,88.661C82.273,88.481,82.170,88.447,81.487,88.403C80.814,88.357,80.669,88.301,80.431,88.042L80.152,87.750L80.100,74.846C80.069,66.398,80.017,61.943,79.945,61.920C79.893,61.898,79.334,62.168,78.703,62.516ZZ" style="fill: rgb(125, 81, 37); fill-opacity: 1;"/></g><g id="strokes-f19921dd-82e4-809d-8002-76d6a61372bb" class="strokes"><g class="stroke-shape"><path stroke="none" rx="0" ry="0" d="M78.703,62.516C76.695,63.630,74.005,64.721,71.997,65.250C70.962,65.531,69.254,65.813,68.592,65.813C68.168,65.813,68.095,65.846,68.095,66.038C68.095,66.217,68.168,66.263,68.489,66.263C69.006,66.263,69.751,66.679,70.031,67.140C70.165,67.365,70.279,67.770,70.320,68.209C70.351,68.591,70.372,73.080,70.351,78.188C70.320,86.783,70.310,87.491,70.134,87.829C69.927,88.245,69.482,88.425,68.644,88.425C68.168,88.425,68.095,88.459,68.095,88.650C68.095,88.875,68.168,88.875,75.184,88.875C82.035,88.875,82.273,88.864,82.273,88.661C82.273,88.481,82.170,88.447,81.487,88.403C80.814,88.357,80.669,88.301,80.431,88.042L80.152,87.750L80.100,74.846C80.069,66.398,80.017,61.943,79.945,61.920C79.893,61.898,79.334,62.168,78.703,62.516ZZ" style="fill: none; stroke-width: 1; stroke: rgb(125, 81, 37); stroke-opacity: 1;"/></g></g></g><g id="shape-f19921dd-82e4-809d-8002-76d6a61372bc"><g class="fills" id="fills-f19921dd-82e4-809d-8002-76d6a61372bc"><path stroke="none" rx="0" ry="0" d="M101.056,89.044C99.204,90.034,96.234,91.046,92.467,91.957C90.946,92.329,90.490,92.486,90.470,92.621C90.438,92.779,90.532,92.813,90.997,92.813C91.660,92.813,92.136,93.105,92.457,93.713C92.674,94.106,92.674,94.151,92.674,111.544C92.674,127.946,92.663,129.004,92.488,129.341C92.281,129.758,91.836,129.938,90.997,129.938C90.521,129.938,90.449,129.971,90.449,130.163C90.449,130.388,90.521,130.388,97.538,130.388C104.378,130.388,104.627,130.376,104.627,130.174C104.627,129.994,104.513,129.960,103.830,129.904C103.168,129.847,103.002,129.791,102.774,129.544L102.505,129.263L102.453,108.866C102.422,97.661,102.391,88.470,102.371,88.447C102.319,88.391,102.143,88.470,101.056,89.044ZZ" style="fill: rgb(125, 81, 37); fill-opacity: 1;"/></g><g id="strokes-f19921dd-82e4-809d-8002-76d6a61372bc" class="strokes"><g class="stroke-shape"><path stroke="none" rx="0" ry="0" d="M101.056,89.044C99.204,90.034,96.234,91.046,92.467,91.957C90.946,92.329,90.490,92.486,90.470,92.621C90.438,92.779,90.532,92.813,90.997,92.813C91.660,92.813,92.136,93.105,92.457,93.713C92.674,94.106,92.674,94.151,92.674,111.544C92.674,127.946,92.663,129.004,92.488,129.341C92.281,129.758,91.836,129.938,90.997,129.938C90.521,129.938,90.449,129.971,90.449,130.163C90.449,130.388,90.521,130.388,97.538,130.388C104.378,130.388,104.627,130.376,104.627,130.174C104.627,129.994,104.513,129.960,103.830,129.904C103.168,129.847,103.002,129.791,102.774,129.544L102.505,129.263L102.453,108.866C102.422,97.661,102.391,88.470,102.371,88.447C102.319,88.391,102.143,88.470,101.056,89.044ZZ" style="fill: none; stroke-width: 1; stroke: rgb(125, 81, 37); stroke-opacity: 1;"/></g></g></g><g id="shape-f19921dd-82e4-809d-8002-76d6a61372bd"><g class="fills" id="fills-f19921dd-82e4-809d-8002-76d6a61372bd"><path stroke="none" rx="0" ry="0" d="M53.959,91.733C52.934,91.946,52.551,92.093,51.537,92.655C49.623,93.724,48.402,95.558,48.019,97.954C47.739,99.630,48.267,101.295,49.478,102.623C50.575,103.815,51.641,104.287,53.255,104.287C54.414,104.287,55.273,104.029,56.153,103.410C58.057,102.060,58.843,99.180,57.891,97.020C57.602,96.379,56.857,95.479,55.749,94.433C55.366,94.073,55.263,93.904,55.263,93.634C55.263,92.891,56.329,92.408,57.736,92.509C59.154,92.599,60.199,93.218,60.665,94.253L60.903,94.781L60.955,103.916L61.006,113.051L61.679,112.725C62.579,112.298,63.883,111.893,65.105,111.668C66.243,111.454,68.778,111.420,69.637,111.600C70.641,111.803,70.569,111.904,70.600,110.273L70.631,108.844L71.241,108.810C72.990,108.709,74.863,109.598,76.230,111.173C77.471,112.601,78.217,114.199,78.817,116.663C79.345,118.823,79.489,121.196,79.220,123.413C78.817,126.810,77.885,129.083,76.064,131.074C75.257,131.963,74.926,132.221,74.201,132.615C73.011,133.245,72.131,133.459,70.734,133.459C69.358,133.459,68.830,133.335,67.692,132.727C65.249,131.456,63.770,128.239,64.266,125.314C64.432,124.313,65.011,123.176,65.715,122.479C66.822,121.365,68.095,120.893,69.803,120.960C70.724,120.994,70.931,121.039,71.521,121.354C72.690,121.984,73.259,122.827,73.280,123.964C73.290,124.279,73.332,124.537,73.384,124.537C73.425,124.537,73.746,124.256,74.098,123.908C75.008,122.985,75.547,121.770,75.619,120.454C75.733,118.462,75.143,116.775,73.808,115.313C71.780,113.096,68.747,112.298,65.136,113.051C64.835,113.119,64.101,113.366,63.500,113.602C60.334,114.874,58.005,117.416,57.208,120.454C56.805,121.972,56.898,124.133,57.436,126.056C58.347,129.296,60.427,131.423,64.070,132.806C66.326,133.661,68.168,133.988,70.900,133.988C73.415,133.988,75.371,133.684,77.823,132.896C80.607,132.008,82.377,131.017,84.302,129.263C86.413,127.328,87.634,125.167,88.193,122.344C88.265,121.950,88.327,120.893,88.327,119.756C88.327,117.574,88.224,116.966,87.562,115.481C86.847,113.861,85.575,112.320,83.981,111.150C82.139,109.800,79.055,108.664,76.509,108.394C76.095,108.349,75.774,108.270,75.805,108.225C75.826,108.191,76.188,108.090,76.602,108.011C78.299,107.685,80.938,106.560,82.542,105.457C83.857,104.580,84.881,103.140,85.161,101.801C85.347,100.958,85.295,99.473,85.057,98.550C84.436,96.064,82.739,94.556,79.376,93.454C76.933,92.655,75.578,92.509,68.923,92.363C63.718,92.239,62.000,92.149,59.040,91.845C56.546,91.598,54.818,91.553,53.959,91.733ZZM74.170,93.274C74.615,93.454,74.926,93.690,75.391,94.208C76.488,95.423,76.995,96.997,76.995,99.158C76.985,103.905,74.460,107.798,71.076,108.293L70.579,108.371L70.579,101.408C70.579,97.144,70.620,94.286,70.683,94.039C70.817,93.521,71.200,93.139,71.686,93.026C72.297,92.891,73.497,93.004,74.170,93.274ZZ" style="fill: rgb(125, 81, 37); fill-opacity: 1;"/></g><g id="strokes-f19921dd-82e4-809d-8002-76d6a61372bd" class="strokes"><g class="stroke-shape"><path stroke="none" rx="0" ry="0" d="M53.959,91.733C52.934,91.946,52.551,92.093,51.537,92.655C49.623,93.724,48.402,95.558,48.019,97.954C47.739,99.630,48.267,101.295,49.478,102.623C50.575,103.815,51.641,104.287,53.255,104.287C54.414,104.287,55.273,104.029,56.153,103.410C58.057,102.060,58.843,99.180,57.891,97.020C57.602,96.379,56.857,95.479,55.749,94.433C55.366,94.073,55.263,93.904,55.263,93.634C55.263,92.891,56.329,92.408,57.736,92.509C59.154,92.599,60.199,93.218,60.665,94.253L60.903,94.781L60.955,103.916L61.006,113.051L61.679,112.725C62.579,112.298,63.883,111.893,65.105,111.668C66.243,111.454,68.778,111.420,69.637,111.600C70.641,111.803,70.569,111.904,70.600,110.273L70.631,108.844L71.241,108.810C72.990,108.709,74.863,109.598,76.230,111.173C77.471,112.601,78.217,114.199,78.817,116.663C79.345,118.823,79.489,121.196,79.220,123.413C78.817,126.810,77.885,129.083,76.064,131.074C75.257,131.963,74.926,132.221,74.201,132.615C73.011,133.245,72.131,133.459,70.734,133.459C69.358,133.459,68.830,133.335,67.692,132.727C65.249,131.456,63.770,128.239,64.266,125.314C64.432,124.313,65.011,123.176,65.715,122.479C66.822,121.365,68.095,120.893,69.803,120.960C70.724,120.994,70.931,121.039,71.521,121.354C72.690,121.984,73.259,122.827,73.280,123.964C73.290,124.279,73.332,124.537,73.384,124.537C73.425,124.537,73.746,124.256,74.098,123.908C75.008,122.985,75.547,121.770,75.619,120.454C75.733,118.462,75.143,116.775,73.808,115.313C71.780,113.096,68.747,112.298,65.136,113.051C64.835,113.119,64.101,113.366,63.500,113.602C60.334,114.874,58.005,117.416,57.208,120.454C56.805,121.972,56.898,124.133,57.436,126.056C58.347,129.296,60.427,131.423,64.070,132.806C66.326,133.661,68.168,133.988,70.900,133.988C73.415,133.988,75.371,133.684,77.823,132.896C80.607,132.008,82.377,131.017,84.302,129.263C86.413,127.328,87.634,125.167,88.193,122.344C88.265,121.950,88.327,120.893,88.327,119.756C88.327,117.574,88.224,116.966,87.562,115.481C86.847,113.861,85.575,112.320,83.981,111.150C82.139,109.800,79.055,108.664,76.509,108.394C76.095,108.349,75.774,108.270,75.805,108.225C75.826,108.191,76.188,108.090,76.602,108.011C78.299,107.685,80.938,106.560,82.542,105.457C83.857,104.580,84.881,103.140,85.161,101.801C85.347,100.958,85.295,99.473,85.057,98.550C84.436,96.064,82.739,94.556,79.376,93.454C76.933,92.655,75.578,92.509,68.923,92.363C63.718,92.239,62.000,92.149,59.040,91.845C56.546,91.598,54.818,91.553,53.959,91.733ZZM74.170,93.274C74.615,93.454,74.926,93.690,75.391,94.208C76.488,95.423,76.995,96.997,76.995,99.158C76.985,103.905,74.460,107.798,71.076,108.293L70.579,108.371L70.579,101.408C70.579,97.144,70.620,94.286,70.683,94.039C70.817,93.521,71.200,93.139,71.686,93.026C72.297,92.891,73.497,93.004,74.170,93.274ZZ" style="fill: none; stroke-width: 1; stroke: rgb(125, 81, 37); stroke-opacity: 1;"/></g></g></g><g id="shape-f19921dd-82e4-809d-8002-76d6a61372be"><g class="fills" id="fills-f19921dd-82e4-809d-8002-76d6a61372be"><path stroke="none" rx="0" ry="0" d="M119.012,102.724C116.342,103.050,113.485,104.287,111.509,105.986C107.235,109.643,105.631,115.864,107.452,121.669C108.228,124.121,109.708,126.304,111.716,127.946C113.351,129.285,115.938,130.410,118.225,130.781C119.643,131.006,122.623,131.006,124.041,130.781C131.151,129.634,135.818,123.750,135.539,116.269C135.466,114.266,135.156,112.905,134.390,111.206C132.517,107.078,128.698,103.973,124.207,102.938C123.027,102.668,120.378,102.555,119.012,102.724ZZM120.543,103.961C121.909,104.681,123.544,108.259,124.445,112.478C125.097,115.605,125.366,118.474,125.293,121.871C125.231,125.156,124.983,126.731,124.269,128.306C123.741,129.488,123.244,129.881,122.416,129.803C121.402,129.690,120.533,128.677,119.529,126.394C118.349,123.739,117.594,120.600,117.128,116.438C116.952,114.874,116.952,110.149,117.128,108.877C117.480,106.223,118.287,104.231,119.167,103.838C119.529,103.669,120.078,103.714,120.543,103.961ZZ" style="fill: rgb(125, 81, 37); fill-opacity: 1;"/></g><g id="strokes-f19921dd-82e4-809d-8002-76d6a61372be" class="strokes"><g class="stroke-shape"><path stroke="none" rx="0" ry="0" d="M119.012,102.724C116.342,103.050,113.485,104.287,111.509,105.986C107.235,109.643,105.631,115.864,107.452,121.669C108.228,124.121,109.708,126.304,111.716,127.946C113.351,129.285,115.938,130.410,118.225,130.781C119.643,131.006,122.623,131.006,124.041,130.781C131.151,129.634,135.818,123.750,135.539,116.269C135.466,114.266,135.156,112.905,134.390,111.206C132.517,107.078,128.698,103.973,124.207,102.938C123.027,102.668,120.378,102.555,119.012,102.724ZZM120.543,103.961C121.909,104.681,123.544,108.259,124.445,112.478C125.097,115.605,125.366,118.474,125.293,121.871C125.231,125.156,124.983,126.731,124.269,128.306C123.741,129.488,123.244,129.881,122.416,129.803C121.402,129.690,120.533,128.677,119.529,126.394C118.349,123.739,117.594,120.600,117.128,116.438C116.952,114.874,116.952,110.149,117.128,108.877C117.480,106.223,118.287,104.231,119.167,103.838C119.529,103.669,120.078,103.714,120.543,103.961ZZ" style="fill: none; stroke-width: 1; stroke: rgb(125, 81, 37); stroke-opacity: 1;"/></g></g></g><g id="shape-f19921dd-82e4-809d-8002-76d6a61372bf"><g class="fills" id="fills-f19921dd-82e4-809d-8002-76d6a61372bf"><path stroke="none" rx="0" ry="0" d="M151.455,102.713C148.133,103.118,145.008,104.704,142.814,107.100C140.341,109.778,139.182,112.894,139.182,116.831C139.182,119.835,139.823,122.299,141.200,124.594C143.155,127.845,146.633,130.118,150.700,130.793C152.231,131.051,155.916,130.950,157.302,130.624C162.311,129.443,165.861,126.169,167.341,121.388C168.003,119.250,168.169,116.392,167.755,114.188C166.730,108.720,162.208,104.164,156.588,102.926C155.429,102.668,152.728,102.555,151.455,102.713ZZM152.904,103.939C154.425,104.681,156.092,108.450,156.982,113.130C158.606,121.657,157.633,129.825,154.995,129.825C154.415,129.825,153.991,129.589,153.422,128.914C150.296,125.269,148.392,113.591,149.872,107.100C150.493,104.333,151.528,103.252,152.904,103.939ZZ" style="fill: rgb(125, 81, 37); fill-opacity: 1;"/></g><g id="strokes-f19921dd-82e4-809d-8002-76d6a61372bf" class="strokes"><g class="stroke-shape"><path stroke="none" rx="0" ry="0" d="M151.455,102.713C148.133,103.118,145.008,104.704,142.814,107.100C140.341,109.778,139.182,112.894,139.182,116.831C139.182,119.835,139.823,122.299,141.200,124.594C143.155,127.845,146.633,130.118,150.700,130.793C152.231,131.051,155.916,130.950,157.302,130.624C162.311,129.443,165.861,126.169,167.341,121.388C168.003,119.250,168.169,116.392,167.755,114.188C166.730,108.720,162.208,104.164,156.588,102.926C155.429,102.668,152.728,102.555,151.455,102.713ZZM152.904,103.939C154.425,104.681,156.092,108.450,156.982,113.130C158.606,121.657,157.633,129.825,154.995,129.825C154.415,129.825,153.991,129.589,153.422,128.914C150.296,125.269,148.392,113.591,149.872,107.100C150.493,104.333,151.528,103.252,152.904,103.939ZZ" style="fill: none; stroke-width: 1; stroke: rgb(125, 81, 37); stroke-opacity: 1;"/></g></g></g><g id="shape-f19921dd-82e4-809d-8002-76d6a61372c0"><g class="fills" id="fills-f19921dd-82e4-809d-8002-76d6a61372c0"><path stroke="none" rx="0" ry="0" d="M189.384,103.388C187.417,103.961,184.747,105.817,182.988,107.842L182.036,108.923L182.036,106.211C182.036,104.017,182.005,103.477,181.891,103.433C181.819,103.399,181.291,103.601,180.732,103.871C177.959,105.233,172.763,106.965,170.580,107.280C170.135,107.336,170.031,107.392,170.031,107.561C170.031,107.741,170.114,107.775,170.590,107.775C171.201,107.775,171.656,108.034,172.039,108.596C172.256,108.911,172.256,108.968,172.287,118.755C172.308,125.438,172.277,128.745,172.205,129.049C172.049,129.656,171.739,129.847,170.797,129.915C170.135,129.960,170.031,129.994,170.031,130.174C170.031,130.376,170.269,130.388,177.172,130.388C184.240,130.388,184.313,130.388,184.313,130.163C184.313,129.960,184.240,129.938,183.723,129.926C182.854,129.926,182.429,129.735,182.222,129.263C182.046,128.903,182.036,128.183,182.036,119.318L182.036,109.766L183.050,108.675C184.271,107.359,185.234,106.763,186.134,106.763C186.621,106.763,186.745,106.808,187.086,107.156C187.335,107.392,187.562,107.764,187.687,108.135C187.873,108.698,187.883,109.215,187.914,118.868L187.945,128.992L187.697,129.386C187.438,129.803,187.179,129.904,186.310,129.926C185.834,129.938,185.762,129.971,185.762,130.163C185.762,130.388,185.834,130.388,192.851,130.388C199.867,130.388,199.940,130.388,199.940,130.163C199.940,129.971,199.867,129.938,199.401,129.938C198.553,129.938,198.108,129.758,197.901,129.341C197.725,129.004,197.715,128.273,197.683,119.329L197.652,109.676L198.615,108.641C199.867,107.291,200.571,106.841,201.492,106.785C202.113,106.740,202.206,106.763,202.506,107.044C202.941,107.437,203.199,108.000,203.344,108.844C203.417,109.283,203.458,112.669,203.458,119.183C203.458,128.183,203.448,128.891,203.272,129.263C203.065,129.724,202.641,129.926,201.833,129.926C201.357,129.938,201.285,129.971,201.285,130.163C201.285,130.388,201.357,130.388,208.374,130.388C215.390,130.388,215.463,130.388,215.463,130.163C215.463,129.971,215.390,129.938,214.925,129.938C214.076,129.938,213.631,129.758,213.424,129.341C213.248,129.004,213.238,128.228,213.186,118.969C213.124,107.786,213.165,108.484,212.358,106.695C211.375,104.513,209.212,103.163,206.718,103.163C205.435,103.163,204.410,103.466,202.889,104.287C201.347,105.120,199.774,106.380,198.511,107.820C197.953,108.461,197.539,108.855,197.518,108.765C197.487,108.686,197.363,108.248,197.238,107.798C196.669,105.773,195.324,104.265,193.399,103.523C192.343,103.118,190.522,103.061,189.384,103.388ZZ" style="fill: rgb(125, 81, 37); fill-opacity: 1;"/></g><g id="strokes-f19921dd-82e4-809d-8002-76d6a61372c0" class="strokes"><g class="stroke-shape"><path stroke="none" rx="0" ry="0" d="M189.384,103.388C187.417,103.961,184.747,105.817,182.988,107.842L182.036,108.923L182.036,106.211C182.036,104.017,182.005,103.477,181.891,103.433C181.819,103.399,181.291,103.601,180.732,103.871C177.959,105.233,172.763,106.965,170.580,107.280C170.135,107.336,170.031,107.392,170.031,107.561C170.031,107.741,170.114,107.775,170.590,107.775C171.201,107.775,171.656,108.034,172.039,108.596C172.256,108.911,172.256,108.968,172.287,118.755C172.308,125.438,172.277,128.745,172.205,129.049C172.049,129.656,171.739,129.847,170.797,129.915C170.135,129.960,170.031,129.994,170.031,130.174C170.031,130.376,170.269,130.388,177.172,130.388C184.240,130.388,184.313,130.388,184.313,130.163C184.313,129.960,184.240,129.938,183.723,129.926C182.854,129.926,182.429,129.735,182.222,129.263C182.046,128.903,182.036,128.183,182.036,119.318L182.036,109.766L183.050,108.675C184.271,107.359,185.234,106.763,186.134,106.763C186.621,106.763,186.745,106.808,187.086,107.156C187.335,107.392,187.562,107.764,187.687,108.135C187.873,108.698,187.883,109.215,187.914,118.868L187.945,128.992L187.697,129.386C187.438,129.803,187.179,129.904,186.310,129.926C185.834,129.938,185.762,129.971,185.762,130.163C185.762,130.388,185.834,130.388,192.851,130.388C199.867,130.388,199.940,130.388,199.940,130.163C199.940,129.971,199.867,129.938,199.401,129.938C198.553,129.938,198.108,129.758,197.901,129.341C197.725,129.004,197.715,128.273,197.683,119.329L197.652,109.676L198.615,108.641C199.867,107.291,200.571,106.841,201.492,106.785C202.113,106.740,202.206,106.763,202.506,107.044C202.941,107.437,203.199,108.000,203.344,108.844C203.417,109.283,203.458,112.669,203.458,119.183C203.458,128.183,203.448,128.891,203.272,129.263C203.065,129.724,202.641,129.926,201.833,129.926C201.357,129.938,201.285,129.971,201.285,130.163C201.285,130.388,201.357,130.388,208.374,130.388C215.390,130.388,215.463,130.388,215.463,130.163C215.463,129.971,215.390,129.938,214.925,129.938C214.076,129.938,213.631,129.758,213.424,129.341C213.248,129.004,213.238,128.228,213.186,118.969C213.124,107.786,213.165,108.484,212.358,106.695C211.375,104.513,209.212,103.163,206.718,103.163C205.435,103.163,204.410,103.466,202.889,104.287C201.347,105.120,199.774,106.380,198.511,107.820C197.953,108.461,197.539,108.855,197.518,108.765C197.487,108.686,197.363,108.248,197.238,107.798C196.669,105.773,195.324,104.265,193.399,103.523C192.343,103.118,190.522,103.061,189.384,103.388ZZ" style="fill: none; stroke-width: 1; stroke: rgb(125, 81, 37); stroke-opacity: 1;"/></g></g></g></g></g></svg>